HIERARCHY
ROOT Hips
{
  OFFSET 1.44925e-005 102.336 -0.101585
  CHANNELS 6 Xposition Yposition Zposition Zrotation Xrotation Yrotation
  JOINT LeftUpLeg
  {
    OFFSET 8.9458 -8.66707 0.101652
    CHANNELS 3 Zrotation Xrotation Yrotation
    JOINT LeftLeg
    {
      OFFSET 0 -44.4227 1.3727
      CHANNELS 3 Zrotation Xrotation Yrotation
      JOINT LeftFoot
      {
        OFFSET -0.253549 -42.0924 -1.46059
        CHANNELS 3 Zrotation Xrotation Yrotation
        JOINT LeftToes
        {
          OFFSET -0.04 -4.41509 8.4991
          CHANNELS 3 Zrotation Xrotation Yrotation
          End Site
          {
            OFFSET 0.08 -0.047448 9.77979
          }
        }
      }
    }
  }
  JOINT Spine
  {
    OFFSET 0 11.8905 0
    CHANNELS 3 Zrotation Xrotation Yrotation
    JOINT Spine1
    {
      OFFSET 0 25.6574 0.127663
      CHANNELS 3 Zrotation Xrotation Yrotation
      JOINT RightShoulder
      {
        OFFSET -8.99 -0.362252 -0.22
        CHANNELS 3 Zrotation Xrotation Yrotation
        JOINT RightArm
        {
          OFFSET -10.2827 -0.00338 0.322123
          CHANNELS 3 Zrotation Xrotation Yrotation
          JOINT RightForeArm
          {
            OFFSET -26.364 0.099144 -1.42434
            CHANNELS 3 Zrotation Xrotation Yrotation
            JOINT RightHand
            {
              OFFSET -22.0324 0.085362 1.02216
              CHANNELS 3 Zrotation Xrotation Yrotation
              End Site
              {
                OFFSET -13.3284 -0.6 1.50291
              }
            }
          }
        }
      }
      JOINT LeftShoulder1
      {
        OFFSET 8.99 -0.362252 -0.22
        CHANNELS 3 Zrotation Xrotation Yrotation
        JOINT LeftArm
        {
          OFFSET 10.2827 -0.00337999 0.322123
          CHANNELS 3 Zrotation Xrotation Yrotation
          JOINT LeftForeArm
          {
            OFFSET 26.2597 0.099144 -1.42434
            CHANNELS 3 Zrotation Xrotation Yrotation
            JOINT LeftHand
            {
              OFFSET 22.0902 0.085362 1.02216
              CHANNELS 3 Zrotation Xrotation Yrotation
              End Site
              {
                OFFSET 13.419 -0.6 1.50291
              }
            }
          }
        }
      }
      JOINT Head
      {
        OFFSET 0 8.73416 0.011341
        CHANNELS 3 Zrotation Xrotation Yrotation
        End Site
        {
          OFFSET -0.29 12.7742 2.51395
        }
      }
    }
  }
  JOINT RightUpLeg
  {
    OFFSET -8.9458 -8.66707 0.101652
    CHANNELS 3 Zrotation Xrotation Yrotation
    JOINT RightLeg
    {
      OFFSET 0 -44.4227 1.3727
      CHANNELS 3 Zrotation Xrotation Yrotation
      JOINT RightFoot
      {
        OFFSET 0.253549 -42.0924 -1.46059
        CHANNELS 3 Zrotation Xrotation Yrotation
        JOINT RightToes
        {
          OFFSET 0.04 -4.41509 8.4991
          CHANNELS 3 Zrotation Xrotation Yrotation
          End Site
          {
            OFFSET -0.08 -0.137448 9.77979
          }
        }
      }
    }
  }
}
MOTION
Frames:	7
Frame Time:	0.0333333
70.7 98.543 1.52549 -9.55204 -2.15784 -97.4363 -8.28082 -6.5634 1.79699 1.18064 28.819 23.0144 -0.794523 -17.9367 0.0215047 -1.34638e-009 8.75222e-006 -1.47485e-008 -4.02237 15.2705 1.22671 -3.39323 -1.12078 0.839142 37.7031 1.78444 0.0736979 39.5601 -23.5158 1.66439 9.19216 40.8797 5.09165 -6.68229 9.69028 -1.41951 -44.3943 3.53194 -3.41392 -25.5611 -15.5356 5.42925 -3.49405 33.9254 -15.7626 5.82328 9.61819 -0.917488 0.142833 -15.7072 -1.62172 -4.40273 -14.0601 2.12958 -4.52543 79.3086 -11.6638 12.0715 -6.91774 -0.246243 0.0462048 0.000530889 0.662642 
67.8589 98.9896 1.66658 -9.57997 -1.71523 -97.4628 -8.0524 -3.66471 1.87184 0.909793 26.9794 23.0505 -0.820326 -18.8299 0.0178849 -1.34638e-009 8.75222e-006 -1.47485e-008 -3.92114 15.6981 0.850379 -2.97795 -1.43412 0.394581 37.5384 1.7841 0.090061 39.0944 -19.9546 0.654612 8.17062 37.7464 7.98715 -6.74711 9.68149 -1.2876 -44.136 3.50809 -3.40563 -26.1293 -11.7553 4.36405 -1.40788 28.8923 -19.8549 5.82328 9.61819 -0.917488 0.473661 -15.2491 -1.17972 -3.24324 -19.4009 2.34093 -4.21982 78.4174 -12.2129 11.4583 -8.49395 -0.0932749 0.0462048 0.000530889 0.662642 
65.0292 99.3576 1.76024 -9.65986 -1.30613 -97.2581 -7.758 -0.674735 2.05624 0.605689 25.0437 22.7563 -0.873202 -19.7085 0.0114068 -1.34638e-009 8.75222e-006 -1.47485e-008 -3.84916 16.1639 0.450239 -2.27782 -1.75153 -0.0501734 37.4259 1.78359 0.0986643 38.8555 -17.2424 0.274389 7.43419 35.5565 9.84509 -6.59651 9.68444 -1.23865 -44.0082 3.49255 -3.39409 -25.9499 -10.4026 3.50473 0.26616 26.3074 -24.0344 5.82328 9.61819 -0.917488 0.77736 -14.8267 -0.842954 -2.26363 -23.5013 2.07879 -3.21111 74.4873 -13.7021 11.176 -10.5489 0.0962784 0.0462048 0.000530889 0.662642 
62.1955 99.6176 1.7987 -9.72029 -0.901489 -96.7971 -7.40012 2.39256 2.31217 0.340867 22.9698 22.2731 -0.6612 -20.5935 0.034631 -1.34638e-009 8.75222e-006 -1.47485e-008 -3.6764 16.5041 0.0522716 -1.41904 -1.8463 -0.46014 37.4153 1.78292 0.0975961 38.6915 -16.4131 0.35819 7.11635 34.5813 10.5756 -6.52982 9.68352 -1.16944 -43.8871 3.47713 -3.38169 -25.2901 -12.7883 2.44435 1.81249 28.0933 -28.0306 5.82328 9.61819 -0.917488 0.974713 -14.5909 -0.723163 -1.63243 -26.3429 1.17043 -2.32508 67.8431 -15.1343 11.4604 -12.113 0.251687 0.0462048 0.000530889 0.662642 
59.3542 99.7392 1.79928 -9.71493 -0.640747 -96.3058 -7.19343 5.36489 2.47727 0.146005 20.8772 21.8677 -0.402445 -21.4234 0.0665446 -1.34638e-009 8.75222e-006 -1.47485e-008 -3.40093 16.6824 -0.252716 -0.735842 -1.78663 -0.730488 37.5164 1.78215 0.0887788 38.5831 -17.461 0.769963 7.21025 34.9402 10.2353 -6.66877 9.6744 -1.08623 -43.7144 3.45871 -3.37097 -24.8879 -14.5798 1.12341 3.3759 29.6774 -31.5824 5.82328 9.61819 -0.917488 1.08645 -14.4754 -0.872729 -1.3659 -28.0007 -0.0230022 -1.72943 59.0443 -15.9755 11.6146 -12.6487 0.309904 0.0462048 0.000530889 0.662642 
56.4548 99.6301 1.77071 -9.69159 -0.741623 -95.857 -7.36172 8.01776 2.61163 0.00182367 19.3055 21.4595 -0.506851 -22.4559 0.0552634 -1.34638e-009 8.75222e-006 -1.47485e-008 -3.20269 16.7345 -0.425769 -0.417639 -1.69789 -0.845795 37.6238 1.78131 0.0796563 38.617 -19.4769 1.28959 7.52841 36.1935 9.24965 -6.84919 9.66563 -1.04507 -43.5801 3.44279 -3.35944 -24.6414 -15.5773 -0.336481 4.47061 30.4871 -34.1896 5.82328 9.61819 -0.917488 1.09316 -14.3477 -1.26997 -1.48021 -28.3958 -1.23612 -1.34372 48.676 -16.0099 11.6583 -13.2541 0.371358 0.0462048 0.000530889 0.662642 
53.4156 99.2893 1.70874 -9.67273 -1.13333 -95.2511 -7.77796 10.4966 2.75298 -0.0847423 18.2561 20.8618 -0.589072 -23.6944 0.0463282 -1.34638e-009 8.75222e-006 -1.47485e-008 -3.01461 16.6502 -0.550307 -0.294177 -1.55964 -0.904826 37.6489 1.78043 0.076799 38.7401 -21.2473 1.6344 7.84212 37.3564 8.27542 -6.86545 9.66451 -1.0349 -43.58 3.43628 -3.34649 -24.4207 -15.6714 -1.88517 4.85708 30.6141 -35.561 5.82328 9.61819 -0.917488 0.898776 -14.1673 -1.88222 -1.8526 -27.6873 -2.59467 -1.10261 37.5129 -15.1554 11.8918 -14.0105 0.458476 0.0462048 0.000530889 0.662642 
